<?xml version="1.0" encoding="utf-8"?>
<!-- Generator: Adobe Illustrator 27.8.1, SVG Export Plug-In . SVG Version: 6.00 Build 0)  -->
<svg version="1.1" id="Layer_1" xmlns="http://www.w3.org/2000/svg" xmlns:xlink="http://www.w3.org/1999/xlink" x="0px" y="0px"
	 viewBox="0 0 24 24" style="enable-background:new 0 0 24 24;" xml:space="preserve">
<path d="M15,22.4c-0.3,0-0.6-0.2-0.7-0.6l-1-3.9l-1.6,1.4c-0.2,0.2-0.6,0.2-0.8,0.1c-0.3-0.1-0.4-0.4-0.4-0.7L11,9.3
	c0-0.3,0.2-0.6,0.6-0.7c0.3-0.1,0.6,0,0.8,0.3l5.2,7.9c0.2,0.3,0.2,0.6,0,0.8c-0.2,0.3-0.5,0.4-0.8,0.3l-2.1-0.4l1,3.9
	c0.1,0.4-0.1,0.8-0.5,0.9C15.2,22.4,15.1,22.4,15,22.4z M12.4,11.6L12,17.1l1.1-1c0.1-0.1,0.2-0.1,0.3-0.2c0.1,0,0.2,0,0.4,0
	l1.5,0.3L12.4,11.6z M6.2,17.1c-0.2,0-0.4-0.1-0.5-0.2c-0.3-0.3-0.3-0.8,0-1.1l1.6-1.6c0.3-0.3,0.8-0.3,1.1,0s0.3,0.8,0,1.1
	l-1.6,1.6C6.6,17,6.4,17.1,6.2,17.1z M20.2,11.2H18c-0.4,0-0.8-0.3-0.8-0.8s0.3-0.8,0.8-0.8h2.2c0.4,0,0.8,0.3,0.8,0.8
	S20.7,11.2,20.2,11.2z M6,11.2H3.8c-0.4,0-0.8-0.3-0.8-0.8s0.3-0.8,0.8-0.8H6c0.4,0,0.8,0.3,0.8,0.8S6.4,11.2,6,11.2z M16.2,7
	c-0.2,0-0.4-0.1-0.5-0.2c-0.3-0.3-0.3-0.8,0-1.1l1.6-1.6c0.3-0.3,0.8-0.3,1.1,0s0.3,0.8,0,1.1l-1.6,1.6C16.6,6.9,16.4,7,16.2,7z
	 M7.8,7C7.6,7,7.4,6.9,7.2,6.8L5.6,5.2c-0.3-0.3-0.3-0.8,0-1.1s0.8-0.3,1.1,0l1.6,1.6c0.3,0.3,0.3,0.8,0,1.1C8.1,6.9,7.9,7,7.8,7z
	 M12,5.2c-0.4,0-0.8-0.3-0.8-0.8V2.2c0-0.4,0.3-0.8,0.8-0.8s0.8,0.3,0.8,0.8v2.2C12.8,4.9,12.4,5.2,12,5.2z"/>
</svg>
